<svg width="70" height="71" viewBox="0 0 70 71" fill="none" xmlns="http://www.w3.org/2000/svg">
<path d="M34.5 35L4 22C-0.800002 32.4 2 43.6667 4 48L34.5 35Z" fill="#3ADE58"/>
<path d="M34.8728 35.1247L3.98347 47.1705C7.82848 57.9601 17.7107 64.0526 22.1712 65.7502L34.8728 35.1247Z" fill="#3AB2DE"/>
<path d="M34.8728 35.1247L3.98347 47.1705C7.82848 57.9601 17.7107 64.0526 22.1712 65.7502L34.8728 35.1247Z" fill="#3AB2DE"/>
<path d="M34.8728 35.1247L3.98347 47.1705C7.82848 57.9601 17.7107 64.0526 22.1712 65.7502L34.8728 35.1247Z" fill="#3AB2DE"/>
<path d="M35.1397 36.45L21.0917 66.4818C31.3194 71.6389 42.6762 69.2306 47.0762 67.3818L35.1397 36.45Z" fill="#3AB2DE"/>
<path d="M35.1397 36.45L21.0917 66.4818C31.3194 71.6389 42.6762 69.2306 47.0762 67.3818L35.1397 36.45Z" fill="#3AB2DE"/>
<path d="M35.1397 36.45L21.0917 66.4818C31.3194 71.6389 42.6762 69.2306 47.0762 67.3818L35.1397 36.45Z" fill="#AA3ADE"/>
<path d="M35.3451 36.0364L47.4108 66.9179C58.198 63.066 64.2841 53.1798 65.9788 48.7182L35.3451 36.0364Z" fill="#3AB2DE"/>
<path d="M35.3451 36.0364L47.4108 66.9179C58.198 63.066 64.2841 53.1798 65.9788 48.7182L35.3451 36.0364Z" fill="#3AB2DE"/>
<path d="M35.3451 36.0364L47.4108 66.9179C58.198 63.066 64.2841 53.1798 65.9788 48.7182L35.3451 36.0364Z" fill="#DE743A"/>
<path d="M35.749 35.8884L66.9474 47.1095C71.1402 36.4502 67.6957 25.3636 65.4493 21.1527L35.749 35.8884Z" fill="#3AB2DE"/>
<path d="M35.749 35.8884L66.9474 47.1095C71.1402 36.4502 67.6957 25.3636 65.4493 21.1527L35.749 35.8884Z" fill="#3AB2DE"/>
<path d="M35.749 35.8884L66.9474 47.1095C71.1402 36.4502 67.6957 25.3636 65.4493 21.1527L35.749 35.8884Z" fill="#C5DE3A"/>
<path d="M34.9597 34.2668L66.0186 22.6653C62.3287 11.8216 52.5349 5.58801 48.0992 3.82665L34.9597 34.2668Z" fill="#3AB2DE"/>
<path d="M34.9597 34.2668L66.0186 22.6653C62.3287 11.8216 52.5349 5.58801 48.0992 3.82665L34.9597 34.2668Z" fill="#3AB2DE"/>
<path d="M34.9597 34.2668L66.0186 22.6653C62.3287 11.8216 52.5349 5.58801 48.0992 3.82665L34.9597 34.2668Z" fill="#6B3ADE"/>
<path d="M35 35.1751L48.0582 4.70001C37.6674 -0.119853 26.3954 2.65862 22.0583 4.65034L35 35.1751Z" fill="#3AB2DE"/>
<path d="M35 35.1751L48.0582 4.70001C37.6674 -0.119853 26.3954 2.65862 22.0583 4.65034L35 35.1751Z" fill="#3AB2DE"/>
<path d="M35 35.1751L48.0582 4.70001C37.6674 -0.119853 26.3954 2.65862 22.0583 4.65034L35 35.1751Z" fill="#DE3A3A"/>
<path d="M34.2633 34.9823L22.669 3.92075C11.8245 7.6081 5.58857 17.4005 3.82618 21.8358L34.2633 34.9823Z" fill="#3AB2DE"/>
<path d="M34.2633 34.9823L22.669 3.92075C11.8245 7.6081 5.58857 17.4005 3.82618 21.8358L34.2633 34.9823Z" fill="#3AB2DE"/>
<path d="M34.2633 34.9823L22.669 3.92075C11.8245 7.6081 5.58857 17.4005 3.82618 21.8358L34.2633 34.9823Z" fill="#DE3ABB"/>
<circle cx="35" cy="35" r="33.5" stroke="white" stroke-width="3"/>
<path d="M35 13L28 1L42 0.999999L35 13Z" fill="white"/>
<line x1="48.3824" y1="3.74041" x2="22.5426" y2="66.6395" stroke="white" stroke-width="3"/>
<line x1="22.1894" y1="3.18477" x2="48.3489" y2="65.8241" stroke="white" stroke-width="3"/>
<line x1="3.8373" y1="48.5358" x2="66.4766" y2="22.3764" stroke="white" stroke-width="3"/>
<line x1="66.2596" y1="47.8875" x2="3.36043" y2="22.0476" stroke="white" stroke-width="3"/>
</svg>
